/* XPM */
static char * sprite0_xpm[] = {
"64 64 24 1",
" 	c None",
".	c #1B4B0B",
"+	c #2F671B",
"@	c #478733",
"#	c #67A353",
"$	c #8BC377",
"%	c #000008",
"&	c #731F00",
"*	c #AF4F00",
"=	c #FF7F23",
"-	c #EB6300",
";	c #FFAF6F",
">	c #0B2B00",
",	c #FFFFFE",
"'	c #FFBFBF",
")	c #FF9797",
"!	c #FF7373",
"~	c #FE0000",
"{	c #9B0000",
"]	c #777777",
"^	c #636363",
"/	c #979797",
"(	c #434343",
"_	c #535353",
"                                                                ",
"                                                                ",
"                            ........                            ",
"                         ...++++++++...                         ",
"                      ...+@@@@@++@@@@@+...                      ",
"                    ...@@@##@@@++@@@##@@@...                    ",
"                   ..++@####@@@@@@@@####@++..                   ",
"                  ..++@@####@@@@@@@@####@@++..                  ",
"                  .+++@@@@##@@@@@@@@##@@@@+++.                  ",
"                 ........@@@#@@++@@#@@@........                 ",
"               ....++++++++@@@@@@@@@@++++++++....               ",
"              ..++++@@@@@@@++@@@@@@++@@@@@@+++++..              ",
"              .+++@@@##$##@@++....++@@##$##@@@+++.              ",
"              .++@#%&*=%=*&%+.++++.+%&*=%=*&%#@++.              ",
"              .++@%&*-;%;-*&++@##@++&*-;%;-*&%@++.              ",
"              .++@#%&*=%=*&%+@#$$#@+%&*=%=*&%#@++.              ",
"               .++@@@@#$$#++@%%@@%%@++#$$#@@@@++.               ",
"                ..+++++++.+@@++##++@@+.+++++++..                ",
"                 .>>>>...+@@@@####@@@@+...>>>>.                 ",
"                      >>>>>..........>>>>>                      ",
"             ..>>>....%%@,'')%%%%%%)'',@%>....>>>..             ",
"           ...+..>.+++.%@!!%%%%%%%%%%!!@%.+++.>..+...           ",
"          ..+@++..+@@++%@~~%!%%%%%%!%~~@%++@@+..++@+..          ",
"         ..@@@@@.+@@@@+%%@{@,!%%%%!,@{@%.+@@@@+.@@@@@..         ",
"        ..@##@@+++@##@+.>@@@@@@@@@@@@@@>++@##@+++@@##@..        ",
"       >.+@##@+++@@##@++.>%+@#$$$$#@+%>.++@##@@+++@##@+.>       ",
"       >>.+@@@+..@@@#@@++.%%%%%%%%%%%%.++@@#@@@..+@@@+.>>       ",
"     .>>>..+@@+..++@@@@+....>>>>>>>>.....@@@@++..+@@+..>>>.     ",
"    ....>>..+++.>+++@@+++..............+++@@+++>.+++..>>....    ",
"    ..++.>>.+++.>.++++++................++++++.>.+++.>>.++..    ",
"   ..+@@@+...+++.>.++++..++++......++++..++++..>+++...+@@@+..   ",
"   .+@@@......+...>.+...+++++++..+++++++...++.>..+......@@@+.   ",
"  ..+@++]]]]^^.......>.++++++++..++++++++.>.......]]]^^^++@+..  ",
"  ..+++/]]]^^^^.....>>.+@@@@@++++++@@@@@+.>>......//]]^^^^.+..  ",
"  ...+///]^^^^^^..>>>>.+@###@@@++@@@###@+.>>>> ..///]^^^^^^...  ",
"  ...]]//]^^^^^^^>>>>>.+@@####@++@####@@+.>>>  ]]]//]^^^^^^^^.  ",
"  ..]]]^(%%%(_^^^^ >>>.++@@###@++@###@@++.>>> ^]]]^(%%%(_^^^^.  ",
"  .^^^^(%%%%%(^^^^  >>.+++@@@@@@@@@@@@+++.>>  ^]^^(%%%%%(^^^^.  ",
"  .^^^^%%%%%%%^^^^   >..++++++++++++++++..>   ^^^^%%%%%%%^^^^.  ",
"  ._^^^%%%%%%%^^^_   >>...++++++++++++...>>   ^^^^%%%%%%%^^^^.  ",
"  .__^^%%%%%%%^^__  >>>.+..............+.>>>  ^^^^%%%%%%%^^^^.  ",
"  .(___(%%%%%(___(  >..+@+++........+++@+..>  ^^__(%%%%%(__^^.  ",
"  ..____(%%%(____(  >..@##@++++++++++@##@..>  (____(%%%(____..  ",
"  ..(___________(.  >>.+@@@@@++++++@@@@@+.>>  .(___________(..  ",
"   ..__________(.  >>...++@@@@+..+@@@@++...>>  .__________(..   ",
"    .(________(.  >>..+..++++++..++++++..+..>>  .(________(.    ",
"     .((((((((.   >...++................++...>   .((((((((.     ",
"      ........    >>...+@@+..++..++..+@@+...>>    ........      ",
"                  >>...+@##@+++..+++@##@+...>>                  ",
"                  >>...++@@@@@+..+@@@@@++...>>                  ",
"                 >>.>.....+++.++++.+++.....>.>>                 ",
"               >>>.++++++....++++++....++++++.>>>               ",
"               >..++@@++++++++++++++++++++@@++..>               ",
"              >...+@@@@@++++++++++++++++@@@@@+...>              ",
"              >..++@###@@@@@@@++++@@@@@@@###@++..>              ",
"              >..++@@####@@@@@@++@@@@@@####@@++..>              ",
"              >>..++@@@#@@#@@@@++@@@@#@@#@@@++..>>              ",
"              >>..+++@@@@@@@@@@++@@@@@@@@@@+++..>>              ",
"               >>...++++@@@@@@@++@@@@@@@++++...>>               ",
"                >>...+++++@@@@++++@@@@+++++...>>                ",
"                 >>.....++++++++++++++++.....>>                 ",
"                  >>........++++++++........>>                  ",
"                    >>>......++++++......>>>                    ",
"                     >>>>>............>>>>>                     "};
